# Blender 4.5.2 LTS
# www.blender.org
mtllib I-Beam01.mtl
o Cube
v 1.000000 8.638885 -0.858302
v 1.000000 -8.638885 -0.858302
v 1.000000 8.638885 0.845847
v 1.000000 -8.638885 0.845847
v -1.000000 8.638885 -0.858302
v -1.000000 -8.638885 -0.858302
v -1.000000 8.638885 0.845847
v -1.000000 -8.638885 0.845847
v -0.445163 -8.638885 -0.551089
v -0.445163 -8.638885 0.551089
v 0.459935 8.638885 -0.551089
v 0.459935 8.638885 0.551089
v -0.445163 8.638885 0.551089
v -0.445163 8.638885 -0.551089
v 0.459935 -8.638885 0.551089
v 0.459935 -8.638885 -0.551089
v -1.000000 8.638885 -0.551089
v 1.000000 -8.638885 -0.551089
v -1.000000 -8.638885 -0.551089
v 1.000000 8.638885 -0.551089
v -1.000000 -8.638885 0.551089
v 1.000000 8.638885 0.551089
v -1.000000 8.638885 0.551089
v 1.000000 -8.638885 0.551089
vn -0.0000 1.0000 -0.0000
vn -0.0000 -0.0000 1.0000
vn -1.0000 -0.0000 -0.0000
vn -0.0000 -1.0000 -0.0000
vn 1.0000 -0.0000 -0.0000
vn -0.0000 -0.0000 -1.0000
vt 0.625000 0.666667
vt 0.875000 0.666667
vt 0.875000 0.750000
vt 0.625000 0.750000
vt 0.375000 0.750000
vt 0.625000 1.000000
vt 0.375000 1.000000
vt 0.375000 0.166667
vt 0.625000 0.166667
vt 0.625000 0.250000
vt 0.375000 0.250000
vt 0.125000 0.666667
vt 0.375000 0.666667
vt 0.125000 0.750000
vt 0.625000 0.500000
vt 0.375000 0.500000
vt 0.375000 0.583333
vt 0.625000 0.583333
vt 0.125000 0.583333
vt 0.375000 0.083333
vt 0.625000 0.083333
vt 0.875000 0.583333
vt 0.875000 0.500000
vt 0.125000 0.500000
vt 0.375000 0.000000
vt 0.625000 0.000000
s 0
usemtl Material
f 22/1/1 23/2/1 7/3/1 3/4/1
f 4/5/2 3/4/2 7/6/2 8/7/2
f 19/8/3 17/9/3 5/10/3 6/11/3
f 21/12/4 24/13/4 4/5/4 8/14/4
f 24/13/5 22/1/5 3/4/5 4/5/5
f 6/11/6 5/10/6 1/15/6 2/16/6
f 18/17/2 20/18/2 11/18/2 16/17/2
f 16/17/5 11/18/5 12/1/5 15/13/5
f 19/19/1 18/17/1 16/17/1 9/19/1
f 9/19/4 16/17/4 15/13/4 10/12/4
f 21/20/6 23/21/6 13/21/6 10/20/6
f 10/20/3 13/21/3 14/9/3 9/8/3
f 20/18/1 17/22/1 14/22/1 11/18/1
f 11/18/1 14/22/1 13/2/1 12/1/1
f 1/15/1 5/23/1 17/22/1 20/18/1
f 6/24/4 2/16/4 18/17/4 19/19/4
f 2/16/5 1/15/5 20/18/5 18/17/5
f 9/8/2 14/9/2 17/9/2 19/8/2
f 8/25/3 7/26/3 23/21/3 21/20/3
f 15/13/6 12/1/6 22/1/6 24/13/6
f 10/12/1 15/13/1 24/13/1 21/12/1
f 12/1/1 13/2/1 23/2/1 22/1/1
